<mxfile host="app.diagrams.net" agent="Mozilla/5.0 (Windows NT 10.0; Win64; x64) AppleWebKit/537.36 (KHTML, like Gecko) Chrome/130.0.0.0 Safari/537.36" version="24.8.3">
  <diagram name="Page-1" id="g--oOW1se6zdyJOI4cht">
    <mxGraphModel dx="1836" dy="724" grid="1" gridSize="10" guides="1" tooltips="1" connect="1" arrows="1" fold="1" page="1" pageScale="1" pageWidth="827" pageHeight="1169" math="0" shadow="0">
      <root>
        <mxCell id="0" />
        <mxCell id="1" parent="0" />
        <mxCell id="llFnNXzoIbvIS_eM6WQq-1" value="Actor" style="shape=umlActor;verticalLabelPosition=bottom;verticalAlign=top;html=1;" vertex="1" parent="1">
          <mxGeometry x="66" y="67" width="30" height="60" as="geometry" />
        </mxCell>
        <mxCell id="llFnNXzoIbvIS_eM6WQq-2" value="Guichetier" style="text;html=1;align=center;verticalAlign=middle;whiteSpace=wrap;rounded=0;" vertex="1" parent="1">
          <mxGeometry x="55" y="140" width="60" height="30" as="geometry" />
        </mxCell>
        <mxCell id="llFnNXzoIbvIS_eM6WQq-3" value="" style="endArrow=none;html=1;rounded=0;" edge="1" parent="1">
          <mxGeometry width="50" height="50" relative="1" as="geometry">
            <mxPoint x="80" y="600" as="sourcePoint" />
            <mxPoint x="80" y="170" as="targetPoint" />
          </mxGeometry>
        </mxCell>
        <mxCell id="llFnNXzoIbvIS_eM6WQq-5" value="" style="endArrow=classic;html=1;rounded=0;" edge="1" parent="1">
          <mxGeometry width="50" height="50" relative="1" as="geometry">
            <mxPoint x="80" y="190" as="sourcePoint" />
            <mxPoint x="290" y="190" as="targetPoint" />
          </mxGeometry>
        </mxCell>
        <mxCell id="llFnNXzoIbvIS_eM6WQq-7" value="Système Guichet" style="html=1;whiteSpace=wrap;" vertex="1" parent="1">
          <mxGeometry x="240" y="30" width="110" height="50" as="geometry" />
        </mxCell>
        <mxCell id="llFnNXzoIbvIS_eM6WQq-8" value="" style="html=1;points=[[0,0,0,0,5],[0,1,0,0,-5],[1,0,0,0,5],[1,1,0,0,-5]];perimeter=orthogonalPerimeter;outlineConnect=0;targetShapes=umlLifeline;portConstraint=eastwest;newEdgeStyle={&quot;curved&quot;:0,&quot;rounded&quot;:0};" vertex="1" parent="1">
          <mxGeometry x="290" y="100" width="10" height="500" as="geometry" />
        </mxCell>
        <mxCell id="llFnNXzoIbvIS_eM6WQq-9" value="Système Central" style="html=1;whiteSpace=wrap;" vertex="1" parent="1">
          <mxGeometry x="460" y="30" width="110" height="50" as="geometry" />
        </mxCell>
        <mxCell id="llFnNXzoIbvIS_eM6WQq-10" value="" style="html=1;points=[[0,0,0,0,5],[0,1,0,0,-5],[1,0,0,0,5],[1,1,0,0,-5]];perimeter=orthogonalPerimeter;outlineConnect=0;targetShapes=umlLifeline;portConstraint=eastwest;newEdgeStyle={&quot;curved&quot;:0,&quot;rounded&quot;:0};" vertex="1" parent="1">
          <mxGeometry x="510" y="99" width="10" height="500" as="geometry" />
        </mxCell>
        <mxCell id="llFnNXzoIbvIS_eM6WQq-11" value="&lt;div&gt;saisirCompte(noC)&lt;/div&gt;&lt;div&gt;&lt;span style=&quot;background-color: initial;&quot;&gt;ouvertureSession()&lt;/span&gt;&lt;/div&gt;&lt;div&gt;&lt;span style=&quot;background-color: initial;&quot;&gt;&lt;br&gt;&lt;/span&gt;&lt;/div&gt;" style="text;html=1;align=center;verticalAlign=middle;whiteSpace=wrap;rounded=0;" vertex="1" parent="1">
          <mxGeometry x="131" y="157" width="120" height="30" as="geometry" />
        </mxCell>
        <mxCell id="llFnNXzoIbvIS_eM6WQq-13" value="" style="html=1;points=[[0,0,0,0,5],[0,1,0,0,-5],[1,0,0,0,5],[1,1,0,0,-5]];perimeter=orthogonalPerimeter;outlineConnect=0;targetShapes=umlLifeline;portConstraint=eastwest;newEdgeStyle={&quot;curved&quot;:0,&quot;rounded&quot;:0};" vertex="1" parent="1">
          <mxGeometry x="296" y="123" width="10" height="40" as="geometry" />
        </mxCell>
        <mxCell id="llFnNXzoIbvIS_eM6WQq-14" value="chercherClient(id)" style="html=1;align=left;spacingLeft=2;endArrow=block;rounded=0;edgeStyle=orthogonalEdgeStyle;curved=0;rounded=0;" edge="1" parent="1">
          <mxGeometry relative="1" as="geometry">
            <mxPoint x="301" y="112" as="sourcePoint" />
            <Array as="points">
              <mxPoint x="331" y="142" />
            </Array>
            <mxPoint x="306" y="142.06666666666672" as="targetPoint" />
          </mxGeometry>
        </mxCell>
        <mxCell id="llFnNXzoIbvIS_eM6WQq-16" value="client" style="html=1;align=left;spacingLeft=2;endArrow=block;rounded=0;edgeStyle=orthogonalEdgeStyle;curved=0;rounded=0;" edge="1" parent="1">
          <mxGeometry relative="1" as="geometry">
            <mxPoint x="307" y="160" as="sourcePoint" />
            <Array as="points">
              <mxPoint x="337" y="190" />
            </Array>
            <mxPoint x="312" y="190.0666666666666" as="targetPoint" />
          </mxGeometry>
        </mxCell>
        <mxCell id="llFnNXzoIbvIS_eM6WQq-17" value="compte(noC)" style="html=1;verticalAlign=bottom;endArrow=block;curved=0;rounded=0;" edge="1" parent="1" target="llFnNXzoIbvIS_eM6WQq-10">
          <mxGeometry width="80" relative="1" as="geometry">
            <mxPoint x="302" y="239" as="sourcePoint" />
            <mxPoint x="382" y="239" as="targetPoint" />
          </mxGeometry>
        </mxCell>
        <mxCell id="llFnNXzoIbvIS_eM6WQq-18" value="Client : Client" style="html=1;whiteSpace=wrap;" vertex="1" parent="1">
          <mxGeometry x="510" y="190" width="70" height="30" as="geometry" />
        </mxCell>
        <mxCell id="llFnNXzoIbvIS_eM6WQq-19" value="" style="endArrow=classic;html=1;rounded=0;" edge="1" parent="1" target="llFnNXzoIbvIS_eM6WQq-8">
          <mxGeometry width="50" height="50" relative="1" as="geometry">
            <mxPoint x="510" y="278" as="sourcePoint" />
            <mxPoint x="450" y="278" as="targetPoint" />
          </mxGeometry>
        </mxCell>
        <mxCell id="llFnNXzoIbvIS_eM6WQq-20" value="validation (true)" style="text;html=1;align=center;verticalAlign=middle;whiteSpace=wrap;rounded=0;" vertex="1" parent="1">
          <mxGeometry x="375" y="255" width="95" height="30" as="geometry" />
        </mxCell>
        <mxCell id="llFnNXzoIbvIS_eM6WQq-21" value="" style="html=1;points=[[0,0,0,0,5],[0,1,0,0,-5],[1,0,0,0,5],[1,1,0,0,-5]];perimeter=orthogonalPerimeter;outlineConnect=0;targetShapes=umlLifeline;portConstraint=eastwest;newEdgeStyle={&quot;curved&quot;:0,&quot;rounded&quot;:0};" vertex="1" parent="1">
          <mxGeometry x="522" y="237" width="10" height="40" as="geometry" />
        </mxCell>
        <mxCell id="llFnNXzoIbvIS_eM6WQq-22" value="" style="endArrow=classic;html=1;rounded=0;" edge="1" parent="1">
          <mxGeometry width="50" height="50" relative="1" as="geometry">
            <mxPoint x="290" y="277" as="sourcePoint" />
            <mxPoint x="80" y="277" as="targetPoint" />
          </mxGeometry>
        </mxCell>
        <mxCell id="llFnNXzoIbvIS_eM6WQq-23" value="typeOpération(retrait, dépot, consultation, autre)" style="text;html=1;align=center;verticalAlign=middle;whiteSpace=wrap;rounded=0;" vertex="1" parent="1">
          <mxGeometry x="90" y="248" width="190" height="30" as="geometry" />
        </mxCell>
        <mxCell id="llFnNXzoIbvIS_eM6WQq-24" value="" style="endArrow=classic;html=1;rounded=0;" edge="1" parent="1" target="llFnNXzoIbvIS_eM6WQq-8">
          <mxGeometry width="50" height="50" relative="1" as="geometry">
            <mxPoint x="82" y="336" as="sourcePoint" />
            <mxPoint x="132" y="286" as="targetPoint" />
          </mxGeometry>
        </mxCell>
        <mxCell id="llFnNXzoIbvIS_eM6WQq-25" value="retrait(montant)" style="text;html=1;align=center;verticalAlign=middle;whiteSpace=wrap;rounded=0;" vertex="1" parent="1">
          <mxGeometry x="110" y="309" width="150" height="30" as="geometry" />
        </mxCell>
        <mxCell id="llFnNXzoIbvIS_eM6WQq-28" value="compte(noC)" style="html=1;verticalAlign=bottom;endArrow=block;curved=0;rounded=0;" edge="1" parent="1">
          <mxGeometry width="80" relative="1" as="geometry">
            <mxPoint x="302" y="336" as="sourcePoint" />
            <mxPoint x="510" y="336" as="targetPoint" />
          </mxGeometry>
        </mxCell>
        <mxCell id="llFnNXzoIbvIS_eM6WQq-29" value="c: Compte" style="html=1;whiteSpace=wrap;" vertex="1" parent="1">
          <mxGeometry x="520" y="307" width="100" height="30" as="geometry" />
        </mxCell>
        <mxCell id="llFnNXzoIbvIS_eM6WQq-30" value="verifierSolde(solde)" style="html=1;align=left;spacingLeft=2;endArrow=block;rounded=0;edgeStyle=orthogonalEdgeStyle;curved=0;rounded=0;exitX=1;exitY=0.5;exitDx=0;exitDy=0;" edge="1" parent="1" source="llFnNXzoIbvIS_eM6WQq-29" target="llFnNXzoIbvIS_eM6WQq-32">
          <mxGeometry relative="1" as="geometry">
            <mxPoint x="613" y="349" as="sourcePoint" />
            <Array as="points">
              <mxPoint x="620" y="349" />
              <mxPoint x="643" y="349" />
              <mxPoint x="643" y="379" />
            </Array>
            <mxPoint x="618" y="379.0666666666667" as="targetPoint" />
          </mxGeometry>
        </mxCell>
        <mxCell id="llFnNXzoIbvIS_eM6WQq-32" value="" style="html=1;points=[[0,0,0,0,5],[0,1,0,0,-5],[1,0,0,0,5],[1,1,0,0,-5]];perimeter=orthogonalPerimeter;outlineConnect=0;targetShapes=umlLifeline;portConstraint=eastwest;newEdgeStyle={&quot;curved&quot;:0,&quot;rounded&quot;:0};" vertex="1" parent="1">
          <mxGeometry x="522" y="356" width="10" height="40" as="geometry" />
        </mxCell>
        <mxCell id="llFnNXzoIbvIS_eM6WQq-33" value="" style="endArrow=classic;html=1;rounded=0;" edge="1" parent="1">
          <mxGeometry width="50" height="50" relative="1" as="geometry">
            <mxPoint x="510" y="394" as="sourcePoint" />
            <mxPoint x="300" y="394" as="targetPoint" />
          </mxGeometry>
        </mxCell>
        <mxCell id="llFnNXzoIbvIS_eM6WQq-34" value="validationCompte (true)" style="text;html=1;align=center;verticalAlign=middle;whiteSpace=wrap;rounded=0;" vertex="1" parent="1">
          <mxGeometry x="320" y="366" width="144" height="30" as="geometry" />
        </mxCell>
        <mxCell id="llFnNXzoIbvIS_eM6WQq-35" value="debitCompte(montant)" style="html=1;verticalAlign=bottom;endArrow=block;curved=0;rounded=0;" edge="1" parent="1">
          <mxGeometry width="80" relative="1" as="geometry">
            <mxPoint x="303" y="455" as="sourcePoint" />
            <mxPoint x="511" y="455" as="targetPoint" />
          </mxGeometry>
        </mxCell>
        <mxCell id="llFnNXzoIbvIS_eM6WQq-36" value="Compte" style="html=1;whiteSpace=wrap;" vertex="1" parent="1">
          <mxGeometry x="520" y="455" width="100" height="30" as="geometry" />
        </mxCell>
        <mxCell id="llFnNXzoIbvIS_eM6WQq-38" value="" style="endArrow=classic;html=1;rounded=0;" edge="1" parent="1">
          <mxGeometry width="50" height="50" relative="1" as="geometry">
            <mxPoint x="512" y="501" as="sourcePoint" />
            <mxPoint x="302" y="501" as="targetPoint" />
          </mxGeometry>
        </mxCell>
        <mxCell id="llFnNXzoIbvIS_eM6WQq-40" value="true" style="text;html=1;align=center;verticalAlign=middle;whiteSpace=wrap;rounded=0;" vertex="1" parent="1">
          <mxGeometry x="330" y="474" width="144" height="30" as="geometry" />
        </mxCell>
        <mxCell id="llFnNXzoIbvIS_eM6WQq-42" value="" style="endArrow=classic;html=1;rounded=0;" edge="1" parent="1">
          <mxGeometry width="50" height="50" relative="1" as="geometry">
            <mxPoint x="290" y="501" as="sourcePoint" />
            <mxPoint x="80" y="501" as="targetPoint" />
          </mxGeometry>
        </mxCell>
        <mxCell id="llFnNXzoIbvIS_eM6WQq-44" value="true" style="text;html=1;align=center;verticalAlign=middle;whiteSpace=wrap;rounded=0;" vertex="1" parent="1">
          <mxGeometry x="156" y="473" width="60" height="30" as="geometry" />
        </mxCell>
      </root>
    </mxGraphModel>
  </diagram>
</mxfile>
